<?xml version="1.0" encoding="UTF-8"?>
<svg id="Layer_1" data-name="Layer 1" xmlns="http://www.w3.org/2000/svg" viewBox="0 0 281.74 252.38">
  <defs>
    <style>
      .cls-1 {
        stroke-width: 1.5px;
      }

      .cls-1, .cls-2 {
        stroke: #231f20;
        stroke-miterlimit: 10;
      }

      .cls-1, .cls-3 {
        fill: #231f20;
      }

      .cls-4 {
        fill: #bc2465;
      }

      .cls-4, .cls-3 {
        stroke-width: 0px;
      }

      .cls-5 {
        fill: #231f20;
        stroke: #fff;
        stroke-linecap: round;
        stroke-linejoin: round;
      }

      .cls-2 {
        fill: #fff;
      }
    </style>
  </defs>
  <rect class="cls-5" x="17.37" y="29.05" width="247" height="167" rx="5.35" ry="5.35"/>
  <polygon class="cls-2" points="24.83 36.99 256.9 36.99 256.9 169.82 24.83 168.41 24.83 36.99"/>
  <g>
    <path class="cls-1" d="M109.53,112.2h-19.41l-3.97,10.79h5.66c.7,0,1.21.14,1.51.4.3.27.46.63.46,1.07,0,.42-.15.77-.46,1.05-.3.28-.81.42-1.51.42h-11.04c-.7,0-1.21-.14-1.51-.42-.3-.28-.46-.63-.46-1.05,0-.44.15-.8.46-1.07.3-.27.81-.4,1.51-.4h2.29l13.04-35.23h-8.72c-.7,0-1.21-.13-1.51-.4-.3-.27-.46-.63-.46-1.07s.15-.8.46-1.07c.3-.27.81-.4,1.51-.4h14.87l14.41,38.18h2.29c.7,0,1.21.14,1.51.4.3.27.46.63.46,1.07,0,.42-.15.77-.46,1.05-.3.28-.81.42-1.51.42h-11c-.73,0-1.24-.14-1.55-.42-.3-.28-.46-.63-.46-1.05,0-.44.15-.8.46-1.07.3-.27.82-.4,1.55-.4h5.62l-4.04-10.79ZM108.41,109.25l-8.16-21.48h-1.09l-7.91,21.48h17.16Z"/>
    <path class="cls-1" d="M144.51,106.86v14.77c0,.7-.14,1.21-.42,1.51-.28.3-.65.46-1.09.46-.42,0-.77-.15-1.05-.46-.28-.3-.42-.81-.42-1.51v-14.77h-13.08c-.7,0-1.21-.13-1.51-.4-.3-.27-.46-.63-.46-1.07s.15-.8.46-1.07c.3-.27.81-.4,1.51-.4h13.08v-14.7c0-.7.14-1.21.42-1.51.28-.3.64-.46,1.09-.46.42,0,.77.15,1.05.46.28.3.42.81.42,1.51v14.7h13.08c.7,0,1.21.14,1.51.4.3.27.46.63.46,1.07s-.15.8-.46,1.07c-.3.27-.81.4-1.51.4h-13.08Z"/>
    <path class="cls-1" d="M200.55,125.95h-28.44v-4.29l23.98-33.64v-.25h-19.65v8.68c0,.73-.14,1.24-.42,1.55-.28.3-.65.46-1.09.46-.42,0-.77-.15-1.05-.46-.28-.3-.42-.82-.42-1.55v-11.64h25.49v4.18l-23.98,33.68v.32h22.64v-10.3c0-.73.13-1.24.4-1.55.27-.3.63-.46,1.07-.46s.8.15,1.07.46c.27.3.4.82.4,1.55v13.25Z"/>
  </g>
  <path class="cls-4" d="M55.5,101.15c1.94,1.48,3.27,2.88,3.96,4.2.89,1.75,1.34,3.83,1.34,6.24v20.93c0,2.22.64,4.03,1.92,5.45s2.88,2.22,4.78,2.42c1.2.12,2,.35,2.39.7.5.47.76,1.05.76,1.75,0,.74-.25,1.33-.76,1.78-.51.45-1.24.67-2.22.67-3.07,0-5.64-.97-7.7-2.92-2.76-2.68-4.14-5.95-4.14-9.79v-20.99c0-2.14-.64-3.94-1.92-5.39-1.28-1.46-2.92-2.26-4.9-2.42-1.09-.12-1.85-.39-2.27-.82-.43-.43-.64-1.03-.64-1.81,0-.74.21-1.32.64-1.75.43-.43,1.19-.7,2.27-.82,2.02-.15,3.66-.96,4.93-2.42,1.26-1.46,1.9-3.25,1.9-5.39v-20.99c0-3.65,1.17-6.69,3.5-9.12,2.33-2.43,5.13-3.64,8.4-3.64.93,0,1.65.23,2.16.7.5.47.76,1.05.76,1.75s-.25,1.28-.76,1.75c-.35.39-1.15.64-2.39.76-1.94.2-3.55,1.01-4.81,2.45-1.26,1.44-1.9,3.23-1.9,5.36v20.99c0,2.45-.39,4.42-1.17,5.92-.78,1.5-2.16,2.98-4.14,4.46Z"/>
  <path class="cls-4" d="M227.77,100.58c-1.93-1.47-3.25-2.86-3.95-4.18-.89-1.74-1.33-3.81-1.33-6.21v-20.83c0-2.21-.64-4.01-1.92-5.43-1.28-1.41-2.86-2.21-4.76-2.41-1.2-.12-1.99-.35-2.38-.7-.5-.46-.75-1.04-.75-1.74,0-.73.25-1.32.75-1.77.5-.45,1.24-.67,2.21-.67,3.06,0,5.61.97,7.66,2.9,2.75,2.67,4.12,5.92,4.12,9.75v20.89c0,2.13.64,3.92,1.91,5.37,1.28,1.45,2.9,2.25,4.87,2.41,1.08.12,1.84.39,2.26.81.43.42.64,1.02.64,1.8,0,.73-.21,1.31-.64,1.74-.43.43-1.18.7-2.26.81-2.01.15-3.65.96-4.9,2.41-1.26,1.45-1.89,3.24-1.89,5.37v20.89c0,3.64-1.16,6.66-3.48,9.08-2.32,2.42-5.11,3.63-8.36,3.63-.93,0-1.64-.23-2.15-.7-.5-.46-.75-1.04-.75-1.74s.25-1.28.75-1.74c.35-.39,1.14-.64,2.38-.75,1.94-.19,3.53-1.01,4.79-2.44,1.26-1.43,1.89-3.21,1.89-5.34v-20.89c0-2.44.39-4.4,1.16-5.89.77-1.49,2.15-2.97,4.12-4.44Z"/>
  <path class="cls-3" d="M177.6,227.33h-73.46c-1.24,0-2.18-1.12-1.97-2.34l5.6-32.39h66.21l5.6,32.39c.21,1.22-.73,2.34-1.97,2.34Z"/>
</svg>